<svg xmlns="http://www.w3.org/2000/svg" viewBox="0 0 1288 390" width="1288" height="390">
	<style>
		tspan { white-space:pre }
		.shp0 { fill: #000000 } 
	</style>
	<path id="Rust Gym " fill-rule="evenodd" class="shp0" d="M185.3 73.2L170.3 142.8L173 142.8C197.9 142.8 215.6 113.7 215.6 90.3C215.6 73.5 206 58.8 182.6 58.8C134 58.8 101.6 86.1 101.6 131.7C101.6 147 105.5 149.4 105.8 152.1C85.1 152.1 73.7 144.6 73.7 123C73.7 83.1 128.9 45 179 45C226.4 45 247.1 68.4 247.1 93C247.1 111.3 235.4 132.3 214.7 144.3C230.3 148.8 235.4 160.2 235.4 174.3C235.4 198.9 220.7 231.6 220.7 250.2C220.7 259.2 225.2 267.3 232.4 270C219.8 273.6 209.9 275.1 202.7 275.1C183.2 275.1 179.3 264.9 179.3 255C179.3 235.2 194.9 198.9 194.9 176.1C194.9 164.1 190.4 155.7 176.9 155.7C174.2 155.7 170.9 156 167.3 156.9L143.3 270L100.1 270L140.9 79.2L185.3 73.2ZM394.7 120L373.1 222C372.5 225.3 371.9 228.6 371.9 231.3C371.9 237.9 374.9 242.7 386.9 242.7C391.82 242.7 397.35 239.87 402.99 235.88C402.86 234.22 402.8 232.5 402.8 230.7C402.8 206.7 413.6 192.9 425.6 192C436.4 172.5 443.3 145.8 448.4 123L491.9 114L491.9 118.2C491.9 167.7 512.3 182.7 512.3 217.8C512.3 219.9 512.3 222 512 224.1C520.4 216.6 527.9 208.8 531.5 204.6L532.06 205.33L547.7 132L537.8 132L540.2 120L550.1 120L559.1 78.6L603.5 72.6C603.5 72.6 599 93 593.3 120L611.3 120L608.9 132L590.9 132L571.7 222C570.8 225.6 570.2 229.2 570.2 232.5C570.2 238.8 572.6 243.3 580.7 243.3C582.8 243.3 586.1 243.3 588.5 242.4C580.1 268.2 566.9 270 556.7 270C535.7 270 526.7 256.2 526.7 237.6C526.7 233.4 527.16 228.74 528.08 224.02C521.57 229.52 514.23 235.87 506.9 242.1C499.1 258.6 482 270 454.1 270C427.4 270 411.3 264.07 405.38 247.76C392.09 259.7 377.49 270 365.6 270C345.2 270 331.4 262.2 328.7 244.8C314.6 258 298.4 270 285.5 270C262.4 270 248 259.8 248 237.3C248 232.8 248.6 227.7 249.8 222L271.4 120L314.6 120L293 222C292.4 225.3 291.8 228.6 291.8 231.3C291.8 237.9 294.8 242.7 306.8 242.7C313.1 242.7 320.6 237.9 328.1 231.9C328.4 228.9 329 225.6 329.9 222L351.5 120L394.7 120ZM428.9 229.5C425.3 229.5 421.7 228.6 418.1 226.8C418.1 244.5 427.7 252.3 443.6 252.3C453.8 252.3 468.5 239.7 468.5 216.6C468.5 198 455 182.1 454.4 144.6C449.6 159.3 445.4 178.5 438.8 193.5C446 195.9 448.7 201.3 448.7 210.3C448.7 221.7 439.4 229.5 428.9 229.5ZM842.3 144.6L817.7 257.4C807.8 303.3 790.1 332.1 740.9 332.1C712.4 332.1 699.2 311.4 699.2 290.7C699.2 270.3 712.1 249.6 735.8 249.6C747.8 249.6 765.2 250.5 765.2 269.7C765.2 273 764.6 277.2 763.4 281.7C755.9 275.4 751.4 273.9 745.4 273.9C731.6 273.9 724.4 285.6 724.4 296.7C724.4 307.2 730.7 317.1 743.3 317.1C756.8 317.1 766.4 311.1 773.3 280.2L785.3 226.5C767.9 235.8 751.4 237.3 748.7 237.3C699.8 237.3 684.2 201.9 684.2 160.5C684.2 103.2 723.5 45 790.4 45C818.3 45 846.2 56.1 846.2 85.2C846.2 101.1 840.5 112.8 825.2 112.8C820.4 112.8 810.2 111.6 804.5 105C812 102.9 817.7 87.9 817.7 80.4C817.7 75.6 816.2 59.1 797 59.1C764 59.1 730.4 115.2 730.4 162.9C730.4 189.6 740.3 212.4 765.2 212.4C776.3 212.4 784.4 209.7 790.7 201.3L803.6 144.6L842.3 144.6ZM995.9 120L968 251.4C980.2 245.5 991.75 237.79 1001.13 226.92L1023.8 120L1067 120L1063.7 135.9C1075.7 127.2 1089.5 120 1102.4 120C1113.5 120 1125.2 127.8 1131.8 139.2C1145.3 129 1160.6 120 1175.3 120C1191.8 120 1209.8 137.4 1209.8 157.8C1209.8 160.2 1209.5 162.3 1209.2 164.7C1207.7 174.6 1194.8 227.4 1194.8 234C1194.8 239.1 1197.2 243.3 1205.9 243.3C1208 243.3 1211.3 243.3 1213.7 242.4C1205.3 268.2 1192.7 270 1182.5 270C1163 270 1151.9 259.8 1151.9 237.3C1151.9 232.5 1152.5 227.7 1153.7 222L1165.1 168C1165.7 165.3 1166 162.6 1166 160.2C1166 149.4 1160.3 142.5 1152.2 142.5C1145.6 142.5 1140.8 144.3 1135.4 147.6C1136.3 151.2 1136.9 154.8 1136.9 158.4C1136.9 160.5 1136.6 162.6 1136.3 164.7L1114.1 270L1070.6 270L1092.2 168C1092.8 165.3 1093.1 162.6 1093.1 160.2C1093.1 149.4 1087.4 142.5 1079.3 142.5C1072.1 142.5 1067 144.6 1061 148.8L1035.2 270L992 270L995.62 252.9C987.19 258.16 976.46 261.97 965 265.2L959 294C950 336.9 924.8 345 905 345C886.7 345 869.6 332.1 869.6 312.6C869.6 285 892.7 276 921.2 267.6L925.4 247.2C911.9 259.5 897.2 270 885.2 270C862.1 270 847.7 259.8 847.7 237.3C847.7 232.8 848.3 227.7 849.5 222L871.1 120L914.3 120L892.7 222C892.1 225.3 891.5 228.6 891.5 231.3C891.5 237.9 894.5 242.7 906.5 242.7C913.1 242.7 921.2 237.6 929 231L952.7 120L995.9 120ZM898.1 318.3C904.1 318.3 911.9 312.6 915.5 294.9L919.1 277.5C900.2 283.8 886.1 292.2 886.1 308.4C886.1 312.6 891.5 318.3 898.1 318.3Z" />
</svg>